<svg width="307" height="90" viewBox="0 0 307 90" fill="none" xmlns="http://www.w3.org/2000/svg">
<rect x="1" y="1" width="305" height="88" rx="2" fill="#ECF5F6" stroke="#4B6174" stroke-width="2"/>
<path d="M15 8L292.85 81.9999" stroke="#D5E4E6" stroke-width="2" stroke-linecap="round"/>
<path d="M15.6211 81.9999L292.231 8.23193" stroke="#D5E4E6" stroke-width="2" stroke-linecap="round"/>
<path d="M52.8605 50.4446H59.6144V52.9999H49.6797V37.5624H52.8605V50.4446Z" fill="#4B6174"/>
<path d="M73.4509 45.631C73.4509 47.1508 73.1823 48.4832 72.6451 49.6282C72.1079 50.7733 71.3374 51.6569 70.3337 52.2789C69.3371 52.9009 68.192 53.2119 66.8984 53.2119C65.619 53.2119 64.4775 52.9045 63.4738 52.2895C62.4701 51.6746 61.6925 50.7981 61.1412 49.6601C60.5898 48.515 60.3106 47.2002 60.3036 45.7159V44.9525C60.3036 43.4327 60.5757 42.0968 61.12 40.9446C61.6713 39.7854 62.4453 38.8983 63.442 38.2834C64.4457 37.6614 65.5908 37.3503 66.8772 37.3503C68.1637 37.3503 69.3052 37.6614 70.3019 38.2834C71.3056 38.8983 72.0796 39.7854 72.6239 40.9446C73.1752 42.0968 73.4509 43.4292 73.4509 44.9419V45.631ZM70.2277 44.9313C70.2277 43.3126 69.9379 42.0827 69.3583 41.2415C68.7786 40.4004 67.9516 39.9798 66.8772 39.9798C65.8099 39.9798 64.9864 40.3968 64.4068 41.2309C63.8272 42.0579 63.5339 43.2737 63.5268 44.8782V45.631C63.5268 47.2073 63.8166 48.4301 64.3962 49.2996C64.9758 50.169 65.8099 50.6037 66.8984 50.6037C67.9658 50.6037 68.7857 50.1867 69.3583 49.3526C69.9308 48.5114 70.2206 47.2886 70.2277 45.684V44.9313Z" fill="#4B6174"/>
<path d="M87.9766 51.049C87.404 51.7346 86.5947 52.2683 85.5486 52.65C84.5024 53.0246 83.3432 53.2119 82.0709 53.2119C80.7349 53.2119 79.5616 52.9221 78.5508 52.3425C77.5471 51.7558 76.7695 50.9076 76.2182 49.7979C75.6739 48.6881 75.3947 47.384 75.3806 45.8855V44.8358C75.3806 43.2949 75.6386 41.9625 76.1546 40.8386C76.6776 39.7077 77.4269 38.8453 78.4023 38.2516C79.3849 37.6508 80.5335 37.3503 81.8482 37.3503C83.679 37.3503 85.1103 37.7886 86.1423 38.6651C87.1743 39.5345 87.7857 40.8033 87.9766 42.4714H84.8806C84.7392 41.5879 84.4247 40.9411 83.9369 40.5311C83.4563 40.1212 82.7919 39.9162 81.9436 39.9162C80.8622 39.9162 80.0387 40.3226 79.4732 41.1355C78.9077 41.9484 78.6215 43.1571 78.6144 44.7616V45.7477C78.6144 47.3663 78.9219 48.5892 79.5368 49.4162C80.1518 50.2432 81.053 50.6567 82.2405 50.6567C83.4351 50.6567 84.2868 50.4022 84.7958 49.8933V47.232H81.9012V44.8888H87.9766V51.049Z" fill="#4B6174"/>
<path d="M103.244 45.631C103.244 47.1508 102.976 48.4832 102.439 49.6282C101.901 50.7733 101.131 51.6569 100.127 52.2789C99.1306 52.9009 97.9855 53.2119 96.692 53.2119C95.4126 53.2119 94.271 52.9045 93.2673 52.2895C92.2636 51.6746 91.486 50.7981 90.9347 49.6601C90.3834 48.515 90.1042 47.2002 90.0971 45.7159V44.9525C90.0971 43.4327 90.3692 42.0968 90.9135 40.9446C91.4648 39.7854 92.2388 38.8983 93.2355 38.2834C94.2392 37.6614 95.3843 37.3503 96.6708 37.3503C97.9572 37.3503 99.0988 37.6614 100.095 38.2834C101.099 38.8983 101.873 39.7854 102.417 40.9446C102.969 42.0968 103.244 43.4292 103.244 44.9419V45.631ZM100.021 44.9313C100.021 43.3126 99.7314 42.0827 99.1518 41.2415C98.5722 40.4004 97.7452 39.9798 96.6708 39.9798C95.6034 39.9798 94.7799 40.3968 94.2003 41.2309C93.6207 42.0579 93.3274 43.2737 93.3203 44.8782V45.631C93.3203 47.2073 93.6101 48.4301 94.1897 49.2996C94.7693 50.169 95.6034 50.6037 96.692 50.6037C97.7593 50.6037 98.5792 50.1867 99.1518 49.3526C99.7243 48.5114 100.014 47.2886 100.021 45.684V44.9313Z" fill="#4B6174"/>
<path d="M114.144 47.5607V52.9999H110.963V37.5624H116.985C118.145 37.5624 119.163 37.7744 120.039 38.1986C120.923 38.6227 121.601 39.227 122.075 40.0116C122.548 40.7891 122.785 41.6762 122.785 42.6729C122.785 44.1855 122.266 45.3801 121.227 46.2566C120.195 47.126 118.763 47.5607 116.932 47.5607H114.144ZM114.144 44.9843H116.985C117.827 44.9843 118.466 44.7864 118.905 44.3905C119.35 43.9947 119.573 43.4292 119.573 42.6941C119.573 41.9378 119.35 41.3263 118.905 40.8598C118.459 40.3933 117.844 40.153 117.06 40.1388H114.144V44.9843Z" fill="#4B6174"/>
<path d="M128.161 50.4446H134.915V52.9999H124.98V37.5624H128.161V50.4446Z" fill="#4B6174"/>
<path d="M145.676 49.8191H140.099L139.039 52.9999H135.657L141.403 37.5624H144.351L150.129 52.9999H146.747L145.676 49.8191ZM140.958 47.2426H144.818L142.877 41.4642L140.958 47.2426Z" fill="#4B6174"/>
<path d="M163.457 47.8576C163.337 49.5187 162.722 50.8263 161.612 51.7806C160.509 52.7348 159.053 53.2119 157.244 53.2119C155.265 53.2119 153.706 52.5475 152.568 51.2186C151.437 49.8827 150.872 48.052 150.872 45.7265V44.7828C150.872 43.2984 151.133 41.9908 151.656 40.8598C152.179 39.7289 152.925 38.863 153.893 38.2622C154.869 37.6543 156 37.3503 157.286 37.3503C159.068 37.3503 160.502 37.8275 161.591 38.7817C162.68 39.7359 163.309 41.0754 163.478 42.8001H160.297C160.22 41.8035 159.94 41.0825 159.46 40.6372C158.986 40.1848 158.262 39.9586 157.286 39.9586C156.226 39.9586 155.431 40.3403 154.901 41.1037C154.378 41.86 154.109 43.0369 154.095 44.6344V45.8007C154.095 47.4688 154.346 48.6881 154.848 49.4586C155.357 50.2291 156.155 50.6143 157.244 50.6143C158.226 50.6143 158.958 50.3916 159.439 49.9463C159.926 49.4939 160.206 48.7977 160.276 47.8576H163.457Z" fill="#4B6174"/>
<path d="M174.834 46.3096H168.727V50.4446H175.894V52.9999H165.546V37.5624H175.873V40.1388H168.727V43.818H174.834V46.3096Z" fill="#4B6174"/>
<path d="M190.324 52.9999H187.143V46.3838H180.941V52.9999H177.76V37.5624H180.941V43.818H187.143V37.5624H190.324V52.9999Z" fill="#4B6174"/>
<path d="M205.794 45.631C205.794 47.1508 205.525 48.4832 204.988 49.6282C204.451 50.7733 203.68 51.6569 202.676 52.2789C201.68 52.9009 200.535 53.2119 199.241 53.2119C197.962 53.2119 196.82 52.9045 195.816 52.2895C194.813 51.6746 194.035 50.7981 193.484 49.6601C192.932 48.515 192.653 47.2002 192.646 45.7159V44.9525C192.646 43.4327 192.918 42.0968 193.463 40.9446C194.014 39.7854 194.788 38.8983 195.785 38.2834C196.788 37.6614 197.933 37.3503 199.22 37.3503C200.506 37.3503 201.648 37.6614 202.645 38.2834C203.648 38.8983 204.422 39.7854 204.967 40.9446C205.518 42.0968 205.794 43.4292 205.794 44.9419V45.631ZM202.57 44.9313C202.57 43.3126 202.281 42.0827 201.701 41.2415C201.121 40.4004 200.294 39.9798 199.22 39.9798C198.153 39.9798 197.329 40.3968 196.749 41.2309C196.17 42.0579 195.876 43.2737 195.869 44.8782V45.631C195.869 47.2073 196.159 48.4301 196.739 49.2996C197.318 50.169 198.153 50.6037 199.241 50.6037C200.308 50.6037 201.128 50.1867 201.701 49.3526C202.273 48.5114 202.563 47.2886 202.57 45.684V44.9313Z" fill="#4B6174"/>
<path d="M211.286 50.4446H218.04V52.9999H208.105V37.5624H211.286V50.4446Z" fill="#4B6174"/>
<path d="M219.874 52.9999V37.5624H224.624C225.981 37.5624 227.193 37.8699 228.261 38.4848C229.335 39.0927 230.173 39.9621 230.773 41.0931C231.374 42.217 231.675 43.4964 231.675 44.9313V45.6416C231.675 47.0765 231.378 48.3524 230.784 49.4692C230.197 50.586 229.367 51.4519 228.292 52.0669C227.218 52.6818 226.006 52.9928 224.656 52.9999H219.874ZM223.055 40.1388V50.4446H224.592C225.836 50.4446 226.787 50.0382 227.444 49.2253C228.102 48.4125 228.437 47.2497 228.451 45.7371V44.9207C228.451 43.3515 228.126 42.164 227.476 41.3582C226.826 40.5453 225.875 40.1388 224.624 40.1388H223.055Z" fill="#4B6174"/>
<path d="M243.285 46.3096H237.177V50.4446H244.345V52.9999H233.997V37.5624H244.324V40.1388H237.177V43.818H243.285V46.3096Z" fill="#4B6174"/>
<path d="M251.926 47.3487H249.392V52.9999H246.211V37.5624H251.947C253.771 37.5624 255.177 37.9688 256.167 38.7817C257.156 39.5946 257.651 40.7432 257.651 42.2276C257.651 43.2808 257.422 44.1608 256.962 44.8676C256.51 45.5674 255.821 46.1258 254.895 46.5429L258.234 52.8515V52.9999H254.82L251.926 47.3487ZM249.392 44.7722H251.958C252.756 44.7722 253.375 44.5708 253.813 44.1679C254.251 43.7579 254.47 43.196 254.47 42.482C254.47 41.754 254.262 41.1814 253.845 40.7644C253.435 40.3474 252.802 40.1388 251.947 40.1388H249.392V44.7722Z" fill="#4B6174"/>
</svg>
